<?xml version="1.0" encoding="UTF-8"?>
<svg width="153px" height="57px" viewBox="0 0 153 57" version="1.1" xmlns="http://www.w3.org/2000/svg" xmlns:xlink="http://www.w3.org/1999/xlink">
    <!-- Generator: Sketch 51.1 (57501) - http://www.bohemiancoding.com/sketch -->
    <title>kcd logo</title>
    <desc>Created with Sketch.</desc>
    <defs>
        <linearGradient x1="29.1068661%" y1="-31.2992907%" x2="71.6647551%" y2="97.0795741%" id="linearGradient-1">
            <stop stop-color="#3DB9E9" offset="0%"></stop>
            <stop stop-color="#326DE6" offset="40.6172272%"></stop>
            <stop stop-color="#384EE4" offset="100%"></stop>
        </linearGradient>
        <linearGradient x1="117.713761%" y1="100%" x2="-13.544697%" y2="100%" id="linearGradient-2">
            <stop stop-color="#3290E6" offset="0%"></stop>
            <stop stop-color="#3754E5" offset="100%"></stop>
        </linearGradient>
        <linearGradient x1="0%" y1="81.2052631%" x2="91.0972104%" y2="14.5327099%" id="linearGradient-3">
            <stop stop-color="#3268E6" offset="0%"></stop>
            <stop stop-color="#31BAE6" offset="71.1582009%"></stop>
            <stop stop-color="#31A4E6" offset="100%"></stop>
        </linearGradient>
        <linearGradient x1="-63.9748217%" y1="100%" x2="100%" y2="7.11942924%" id="linearGradient-4">
            <stop stop-color="#74F0F6" offset="0%"></stop>
            <stop stop-color="#39B5E8" offset="100%"></stop>
        </linearGradient>
    </defs>
    <g id="Page-1" stroke="none" stroke-width="1" fill="none" fill-rule="evenodd">
        <g id="kcd-logo" transform="translate(-20.000000, -22.000000)">
            <g id="Group-3-Copy" transform="translate(19.000000, 21.000000)">
                <g id="Group-13-Copy" transform="translate(0.909641, 0.976734)">
                    <path d="M22.2997271,56.0916519 C24.4428989,53.2702056 25.7148952,49.7508479 25.7148952,45.9343996 L25.7148952,39.4393942 C26.6350331,39.4531285 27.6079117,39.4601339 28.6365813,39.4601339 C29.6937811,39.4601339 30.6926332,39.4527346 31.6363687,39.4382359 L31.6363687,45.9343996 C31.6363687,49.7439278 32.9037564,53.2574418 35.0398873,56.0762972 C32.9827433,56.5542707 30.8391719,56.8069616 28.6365813,56.8069616 C26.4576967,56.8069616 24.3365676,56.5596808 22.2997271,56.0916519 Z M16.1925253,53.9176302 C13.0035492,52.3455886 10.1549345,50.1881699 7.78695937,47.5856521 C12.0200158,46.7168571 15.2775663,43.1731606 15.7156737,38.7984996 C16.8316914,38.9664325 18.1520726,39.105352 19.7148952,39.2118089 L19.7148952,45.9343996 C19.7148952,49.0964069 18.3569958,51.9412599 16.1925253,53.9176302 Z M49.7337377,47.3100027 C47.3301415,50.0220428 44.4116224,52.2672912 41.1313722,53.8925563 C38.9828285,51.9172372 37.6363687,49.0830596 37.6363687,45.9343996 L37.6363687,39.2076552 C39.2050823,39.0999962 40.5317716,38.9597003 41.653968,38.7902518 C42.2172746,43.0878237 45.5093834,46.5265929 49.7337377,47.3100027 Z M54.2093679,40.4824633 C53.5048706,41.1021539 52.5806425,41.4779756 51.5686366,41.4779756 C49.3594976,41.4779756 47.5686366,39.6871146 47.5686366,37.4779756 L47.5686366,36.002545 C47.6070619,35.9096757 47.6400769,35.8155169 47.6684901,35.7201436 C48.2137339,33.8899529 49.1005829,32.5209249 49.1005829,27.4435984 C49.1005829,24.7316658 48.5560163,22.1449175 47.5686385,19.7835041 L47.5686366,19.7296527 L47.5460284,19.7296527 C44.4700986,12.4336931 37.1621881,7.30234057 28.6365813,7.30234057 C17.3346253,7.30234057 8.17257966,16.3198889 8.17257966,27.4435984 C8.17257966,32.2731221 9.18110773,33.8899529 9.72635148,35.7201436 C9.7386871,35.7615499 9.75184659,35.8027273 9.76589776,35.8436697 L9.76589776,37.7899874 C9.76589776,39.9991264 7.97503676,41.7899874 5.76589776,41.7899874 C4.82156914,41.7899874 3.95367076,41.4627506 3.26941352,40.9154879 C1.46675788,37.2014023 0.455756703,33.0318357 0.455756703,28.6261371 C0.455756703,13.0622974 13.0727416,0.4453125 28.6365813,0.4453125 C44.2004209,0.4453125 56.8174058,13.0622974 56.8174058,28.6261371 C56.8174058,32.8614175 55.8831056,36.8784805 54.2093679,40.4824633 Z" id="Combined-Shape" fill="url(#linearGradient-1)"></path>
                    <ellipse id="Oval-6-Copy-26" fill="#365BE5" cx="19.7197351" cy="27.1976536" rx="3.14927305" ry="3.23627311"></ellipse>
                    <ellipse id="Oval-6-Copy-27" fill="#365BE5" cx="37.5379827" cy="27.1976536" rx="3.14927305" ry="3.23627311"></ellipse>
                </g>
            </g>
            <g id="Group-2-Copy" transform="translate(89.737305, 30.000000)">
                <g id="Group" transform="translate(0.000000, 0.290710)" fill="url(#linearGradient-2)">
                    <path d="M8.87621274,19.1116802 L15.0019588,9.96164753 L25.0875348,9.96164753 L14.7153384,23.3055817 L25.8578558,38.9558749 L15.1670276,38.9558749 L8.87621274,28.44291 L8.87621274,38.9558749 L0.0310595879,38.9558749 L0.0310595879,0.626877928 L8.87621274,0.626877928 L8.87621274,19.1116802 Z" id="Combined-Shape"></path>
                </g>
                <path d="M40.6562375,10.4783205 L40.6562375,19.3234736 C37.3995421,19.3234736 34.7594688,21.9635469 34.7594688,25.2202424 C34.7594688,28.4769378 37.3995421,31.1170111 40.6562375,31.1170111 C43.912933,31.1170111 46.5530063,28.4769378 46.5530063,25.2202424 L46.3742921,5.63423001 L55.2540888,5.7007098 L55.3981595,25.2202424 C55.3981595,33.361981 48.7979762,39.9621643 40.6562375,39.9621643 C32.5144989,39.9621643 25.9143156,33.361981 25.9143156,25.2202424 C25.9143156,17.0785037 32.5144989,10.4783205 40.6562375,10.4783205 Z" id="Oval-2-Copy-88" fill="url(#linearGradient-3)" fill-rule="nonzero" transform="translate(40.656238, 22.798197) rotate(-315.000000) translate(-40.656238, -22.798197) "></path>
                <path d="" id="Path-5-Copy-3" stroke="#979797"></path>
                <path d="M82.5856398,24.430527 C82.5857614,24.4552246 82.5858223,24.4799367 82.5858223,24.504663 C82.5858223,32.6464016 75.985639,39.2465849 67.8439004,39.2465849 C59.7021617,39.2465849 53.1019785,32.6464016 53.1019785,24.504663 C53.1019785,16.3629243 59.7021617,9.76274105 67.8439004,9.76274105 C69.9405104,9.76274105 71.9348947,10.2004213 73.7406692,10.9893978 L73.7406692,0.917587898 L82.5858223,0.917587898 L82.5858223,24.430527 Z M67.8439004,30.4014317 C71.1005959,30.4014317 73.7406692,27.7613584 73.7406692,24.504663 C73.7406692,21.2479675 71.1005959,18.6078942 67.8439004,18.6078942 C64.5872049,18.6078942 61.9471316,21.2479675 61.9471316,24.504663 C61.9471316,27.7613584 64.5872049,30.4014317 67.8439004,30.4014317 Z" id="Combined-Shape" fill="url(#linearGradient-4)"></path>
            </g>
        </g>
    </g>
</svg>