<?xml version="1.0" encoding="UTF-8"?>
<svg width="58px" height="57px" viewBox="0 0 58 57" version="1.1" xmlns="http://www.w3.org/2000/svg" xmlns:xlink="http://www.w3.org/1999/xlink">
    <!-- Generator: Sketch 51.1 (57501) - http://www.bohemiancoding.com/sketch -->
    <title>logo mark</title>
    <desc>Created with Sketch.</desc>
    <defs>
        <linearGradient x1="29.1068661%" y1="-31.2992907%" x2="71.6647551%" y2="97.0795741%" id="linearGradient-1">
            <stop stop-color="#3DB9E9" offset="0%"></stop>
            <stop stop-color="#326DE6" offset="40.6172272%"></stop>
            <stop stop-color="#384EE4" offset="100%"></stop>
        </linearGradient>
    </defs>
    <g id="Page-1" stroke="none" stroke-width="1" fill="none" fill-rule="evenodd">
        <g id="logo-mark" transform="translate(-9.000000, -10.000000)">
            <g id="Group-3-Copy" transform="translate(8.577610, 8.570484)">
                <g id="Group-13-Copy" transform="translate(0.909641, 0.976734)">
                    <path d="M22.2997271,56.0916519 C24.4428989,53.2702056 25.7148952,49.7508479 25.7148952,45.9343996 L25.7148952,39.4393942 C26.6350331,39.4531285 27.6079117,39.4601339 28.6365813,39.4601339 C29.6937811,39.4601339 30.6926332,39.4527346 31.6363687,39.4382359 L31.6363687,45.9343996 C31.6363687,49.7439278 32.9037564,53.2574418 35.0398873,56.0762972 C32.9827433,56.5542707 30.8391719,56.8069616 28.6365813,56.8069616 C26.4576967,56.8069616 24.3365676,56.5596808 22.2997271,56.0916519 Z M16.1925253,53.9176302 C13.0035492,52.3455886 10.1549345,50.1881699 7.78695937,47.5856521 C12.0200158,46.7168571 15.2775663,43.1731606 15.7156737,38.7984996 C16.8316914,38.9664325 18.1520726,39.105352 19.7148952,39.2118089 L19.7148952,45.9343996 C19.7148952,49.0964069 18.3569958,51.9412599 16.1925253,53.9176302 Z M49.7337377,47.3100027 C47.3301415,50.0220428 44.4116224,52.2672912 41.1313722,53.8925563 C38.9828285,51.9172372 37.6363687,49.0830596 37.6363687,45.9343996 L37.6363687,39.2076552 C39.2050823,39.0999962 40.5317716,38.9597003 41.653968,38.7902518 C42.2172746,43.0878237 45.5093834,46.5265929 49.7337377,47.3100027 Z M54.2093679,40.4824633 C53.5048706,41.1021539 52.5806425,41.4779756 51.5686366,41.4779756 C49.3594976,41.4779756 47.5686366,39.6871146 47.5686366,37.4779756 L47.5686366,36.002545 C47.6070619,35.9096757 47.6400769,35.8155169 47.6684901,35.7201436 C48.2137339,33.8899529 49.1005829,32.5209249 49.1005829,27.4435984 C49.1005829,24.7316658 48.5560163,22.1449175 47.5686385,19.7835041 L47.5686366,19.7296527 L47.5460284,19.7296527 C44.4700986,12.4336931 37.1621881,7.30234057 28.6365813,7.30234057 C17.3346253,7.30234057 8.17257966,16.3198889 8.17257966,27.4435984 C8.17257966,32.2731221 9.18110773,33.8899529 9.72635148,35.7201436 C9.7386871,35.7615499 9.75184659,35.8027273 9.76589776,35.8436697 L9.76589776,37.7899874 C9.76589776,39.9991264 7.97503676,41.7899874 5.76589776,41.7899874 C4.82156914,41.7899874 3.95367076,41.4627506 3.26941352,40.9154879 C1.46675788,37.2014023 0.455756703,33.0318357 0.455756703,28.6261371 C0.455756703,13.0622974 13.0727416,0.4453125 28.6365813,0.4453125 C44.2004209,0.4453125 56.8174058,13.0622974 56.8174058,28.6261371 C56.8174058,32.8614175 55.8831056,36.8784805 54.2093679,40.4824633 Z" id="Combined-Shape" fill="url(#linearGradient-1)"></path>
                    <ellipse id="Oval-6-Copy-26" fill="#365BE5" cx="19.7197351" cy="27.1976536" rx="3.14927305" ry="3.23627311"></ellipse>
                    <ellipse id="Oval-6-Copy-27" fill="#365BE5" cx="37.5379827" cy="27.1976536" rx="3.14927305" ry="3.23627311"></ellipse>
                </g>
            </g>
        </g>
    </g>
</svg>